# xmcd
#
# Track frame offsets: 
#        150
#        18474
#        35117
#        52800
#        68738
#        85355
#        98573
#        115587
#        134411
#        153234
#        171321
#        190573
#        212447
#        234440
#        253395
#        272910
#        293658
#        312797
#
# Disc length: 4458 seconds
#
# Revision: 0
# Processed by: cddbd v1.5.1PL0 Copyright (c) Steve Scherf et al.
# Submitted via: ExactAudioCopy v0.95a3
#
DISCID=f4116812
DTITLE=Диана - Сделай Шаг
DYEAR=2000
DGENRE=Pop
TTITLE0=Осенний Призыв
TTITLE1=Хайтинай
TTITLE2=Запах Нового Года
TTITLE3=Вода
TTITLE4=Сделай Шаг
TTITLE5=Дальний Свет
TTITLE6=Не Жалей
TTITLE7=Всё Будет Хорошо
TTITLE8=Кукла (Ремикс)
TTITLE9=Без Тебя (Ремикс)
TTITLE10=Не Целуй Её (Ремикс)
TTITLE11=Расскажи (Ремикс)
TTITLE12=Гори, Гори Ясно (Ремикс)
TTITLE13=Скатертью Дорожка (Ремикс)
TTITLE14=Профессор (Ремикс)
TTITLE15=Я Больше Не Твоя (Ремикс)
TTITLE16=Грешная Любовь (Ремикс)
TTITLE17=Улетаю (Ремикс)
EXTD=
EXTT0=
EXTT1=
EXTT2=
EXTT3=
EXTT4=
EXTT5=
EXTT6=
EXTT7=
EXTT8=
EXTT9=
EXTT10=
EXTT11=
EXTT12=
EXTT13=
EXTT14=
EXTT15=
EXTT16=
EXTT17=
PLAYORDER=
